<svg width="12" height="20" viewBox="0 0 12 20" fill="none" xmlns="http://www.w3.org/2000/svg">
<path d="M1.33972 0.321589L0.296371 1.33076C0.0846759 1.54483 -0.0136089 1.80477 0.00151213 2.11058C0.0166332 2.41639 0.130039 2.67633 0.341734 2.8904L7.70227 10.0005L0.341734 17.1106C0.130039 17.3246 0.0166332 17.5846 0.00151213 17.8904C-0.0136089 18.1962 0.0846759 18.4561 0.296371 18.6702L1.33972 19.6794C1.55141 19.8935 1.80847 20.0005 2.11089 20.0005C2.41331 20.0005 2.67036 19.8935 2.88206 19.6794L11.6825 10.7803C11.8942 10.5662 12 10.3063 12 10.0005C12 9.69468 11.8942 9.43474 11.6825 9.22067L2.88206 0.321589C2.67036 0.107521 2.41331 0.000488281 2.11089 0.000488281C1.80847 0.000488281 1.55141 0.107521 1.33972 0.321589Z" fill="#B7C2D1"/>
</svg>
