<svg width="16" height="16" viewBox="0 0 16 16" fill="none" xmlns="http://www.w3.org/2000/svg">
<path d="M8 0C6.41775 0 4.87103 0.469192 3.55544 1.34824C2.23985 2.22729 1.21447 3.47672 0.608967 4.93853C0.00346637 6.40034 -0.15496 8.00887 0.153721 9.56072C0.462403 11.1126 1.22433 12.538 2.34315 13.6569C3.46197 14.7757 4.88743 15.5376 6.43928 15.8463C7.99113 16.155 9.59966 15.9965 11.0615 15.391C12.5233 14.7855 13.7727 13.7602 14.6518 12.4446C15.5308 11.129 16 9.58225 16 8C15.9974 5.87906 15.1537 3.84572 13.654 2.34599C12.1543 0.846255 10.1209 0.00257427 8 0ZM8 14.8327C6.64862 14.8327 5.3276 14.432 4.20397 13.6812C3.08034 12.9304 2.20458 11.8633 1.68743 10.6148C1.17028 9.36624 1.03497 7.99242 1.29861 6.66701C1.56225 5.3416 2.213 4.12413 3.16857 3.16856C4.12413 2.21299 5.3416 1.56224 6.66701 1.2986C7.99242 1.03496 9.36625 1.17027 10.6148 1.68742C11.8633 2.20457 12.9304 3.08033 13.6812 4.20396C14.432 5.32759 14.8327 6.64862 14.8327 8C14.8306 9.81151 14.1101 11.5482 12.8292 12.8292C11.5482 14.1101 9.81151 14.8306 8 14.8327Z" fill="white" fill-opacity="0.7"/>
<path d="M10.7547 7.90665H8.13216V4.4047C8.13216 4.24991 8.07067 4.10145 7.96121 3.99199C7.85175 3.88254 7.7033 3.82104 7.5485 3.82104C7.39371 3.82104 7.24525 3.88254 7.13579 3.99199C7.02634 4.10145 6.96484 4.24991 6.96484 4.4047V8.49614C6.96484 8.65094 7.02634 8.79939 7.13579 8.90885C7.24525 9.01831 7.39371 9.0798 7.5485 9.0798H10.7567C10.9115 9.0798 11.0599 9.01831 11.1694 8.90885C11.2788 8.79939 11.3403 8.65094 11.3403 8.49614C11.3403 8.34135 11.2788 8.19289 11.1694 8.08343C11.0599 7.97398 10.9115 7.91248 10.7567 7.91248L10.7547 7.90665Z" fill="white" fill-opacity="0.7"/>
</svg>
